<svg xmlns="http://www.w3.org/2000/svg" version="1.1" xmlns:xlink="http://www.w3.org/1999/xlink" xmlns:svgjs="http://svgjs.dev/svgjs" width="100%" height="100%" viewBox="0 0 1000 600"><rect width="1000" height="600" x="0" y="0" fill="#191919"/><g><rect width="333.3333333333333" height="333.3333333333333" rx="13.333333333333334" ry="13.333333333333334" y="168.9510648941127" fill="#b88746" transform="matrix(0.8519115214232056,0,0,0.8519115214232057,0,14.083381874277805)" x="146.72882080078125"/><path d="M368.49871889511917 365.15610564840847L382.6105225150394 376.9597674754226Q372.2969269087623 392.09416556055453 356.4028872209017 401.3559497168998Q340.5380645177614 410.617733873245 318.8590618552752 410.617733873245L318.8590618552752 410.617733873245Q298.26108762744116 410.617733873245 281.11071759660626 401.0345628849761Q263.96034756577143 391.45139189670726 254.08500673029926 374.4178898047537Q244.18044891010672 357.38438771280016 244.18044891010672 335.93912092807653L244.18044891010672 335.93912092807653Q244.18044891010672 313.8510804795056 253.85127085253657 296.70071044867075Q263.5513097796868 279.55034041783586 279.73751931475067 270.0840373684483Q295.92372884981455 260.6177343190608 314.65181605554733 260.6177343190608L314.65181605554733 260.6177343190608Q329.81543112539964 260.6177343190608 341.47300802881205 266.0813104617629Q353.15980191694484 271.544886604465 361.13603874559544 281.4494444246575L361.13603874559544 281.4494444246575L361.3697746233581 263.5686497758143L380.9159374012602 263.5686497758143L380.9159374012602 310.4619102519471L367.0378696591025 311.7474575796417Q351.9034715739706 278.0894911818193 317.8072504053432 278.0894911818193L317.8072504053432 278.0894911818193Q304.13370155622783 278.0894911818193 292.47612465281543 285.1307844994193Q280.78933076468263 292.1720778170193 273.74803744708265 305.31972094116867Q266.7067441294827 318.46736406531807 266.7067441294827 335.7053850503139L266.7067441294827 335.7053850503139Q266.7067441294827 352.1253304631405 273.6311695082013 365.0684546942475Q280.58481187164034 378.01157892535457 292.47612465281543 385.3742590748782Q304.33822044927024 392.73693922440185 318.8590618552752 392.73693922440185L318.8590618552752 392.73693922440185Q335.8925639472287 392.73693922440185 347.7838767284038 385.3742590748782Q359.6751895095789 378.01157892535457 368.49871889511917 365.15610564840847L368.49871889511917 365.15610564840847Z " fill="white" transform="matrix(0.8519115214232056,0,0,0.8519115214232057,0,14.083381874277805)"/><path d="M632.8357269317262 352.1154661467772L640.02937308871 362.57688847601867Q624.825136731678 377.2818812511781 604.5830787757486 377.2818812511781L604.5830787757486 377.2818812511781Q593.7812630952302 377.2818812511781 584.3183279297341 372.22136676219577Q574.8326998741529 367.1381593831283 569.1140915727019 357.9248460085686Q563.3954832712511 348.68883974392367 563.3954832712511 336.7523795591492L563.3954832712511 336.7523795591492Q563.3954832712511 325.4740131868433 568.6375408809145 316.0791566916025Q573.8569056004926 306.6843001963618 582.6844398436053 301.30608524618776Q591.5119740867179 295.90517740592855 601.7918532952785 295.90517740592855L601.7918532952785 295.90517740592855Q618.1307341565667 295.90517740592855 627.2759688608712 307.5012442394262L627.2759688608712 307.5012442394262L627.2759688608712 298.0383090739301L638.8947285844539 298.0383090739301L638.8947285844539 324.9974624950557L632.0187828886617 325.4740131868433Q624.0081926886135 309.13513232555505 606.5346673230691 309.13513232555505L606.5346673230691 309.13513232555505Q599.0233207048935 309.13513232555505 592.9643190521658 312.652530288749Q586.9280102895232 316.169928251943 583.5013838866697 322.3877801352666Q580.0747574838163 328.5829391285051 580.0747574838163 336.59352932855336L580.0747574838163 336.59352932855336Q580.0747574838163 344.44526929800577 583.751005677606 350.64042829124423Q587.4272538713959 356.8582801745678 593.372791073698 360.19413501708084Q599.3410211660853 363.552682749679 606.2169668618774 363.552682749679L606.2169668618774 363.552682749679Q614.2048641718405 363.7115329802748 620.3319444948236 360.78415015929403Q626.4590248178067 357.8340744482281 632.8357269317262 352.1154661467772L632.8357269317262 352.1154661467772ZM737.563414674567 361.4195510816774L740.8311908468245 373.0383108052602Q735.4529758966505 376.30608697751785 728.2593297396666 376.30608697751785L728.2593297396666 376.30608697751785Q722.2230209770239 376.30608697751785 718.0475292013614 372.78868901432384Q713.8720374256989 369.2712910511298 712.2381493395701 362.73573870661454L712.2381493395701 362.73573870661454Q695.8992684782818 377.2818812511781 679.9007809682703 377.2818812511781L679.9007809682703 377.2818812511781Q668.6224145959645 377.2818812511781 660.7706746265121 370.9051791372587Q652.9416275471448 364.52847702333924 652.9416275471448 353.09126042043744L652.9416275471448 353.09126042043744Q652.9416275471448 345.26221334107015 657.3440482236585 339.4528334792788Q661.7691617902574 333.6434536174874 669.1897368480925 330.6252992361661Q676.6330047960128 327.6071448548448 685.2789959184445 327.6071448548448L685.2789959184445 327.6071448548448Q692.6314923060243 327.6071448548448 698.8493441893477 328.99141115003727Q705.0671960726713 330.37567744522977 711.6027484171866 333.00805269510397L711.6027484171866 333.00805269510397L711.6027484171866 325.8144065381201Q711.6027484171866 317.48611587688015 706.0429903463316 313.56024589215394Q700.4832322754767 309.63437590742774 691.4968478017681 309.63437590742774L691.4968478017681 309.63437590742774Q678.7434435739292 309.63437590742774 660.7706746265121 316.6691718338157L660.7706746265121 316.6691718338157L657.5028984542544 304.23346806716853Q676.7918550266086 296.06402763652443 693.4484363490885 296.06402763652443L693.4484363490885 296.06402763652443Q709.3107665185892 296.06402763652443 718.0475292013614 303.82499604563634Q726.7842918841336 311.58596445474825 726.7842918841336 326.4725003505887L726.7842918841336 326.4725003505887L726.7842918841336 354.72514850656626Q726.7842918841336 362.73573870661454 732.5029001855846 362.73573870661454L732.5029001855846 362.73573870661454Q734.9537323147779 362.73573870661454 737.563414674567 361.4195510816774L737.563414674567 361.4195510816774ZM668.7812648265603 352.27431637737305Q668.7812648265603 357.8340744482281 673.2063783931592 360.85222882954935Q677.6087990696731 363.87038321087067 683.9855011835925 363.87038321087067L683.9855011835925 363.87038321087067Q689.5452592544475 363.87038321087067 696.7162125213463 360.9430003898899Q703.90985867833 357.99292467882395 711.6027484171866 352.27431637737305L711.6027484171866 352.27431637737305L711.6027484171866 343.62832525494133Q700.4832322754767 339.7024552702151 688.0702213989146 339.3620619189383L688.0702213989146 339.3620619189383Q680.0596311988663 339.3620619189383 674.4317944577558 342.72060965153645Q668.7812648265603 346.0791573841346 668.7812648265603 352.27431637737305L668.7812648265603 352.27431637737305ZM806.6859578738502 357.51637398703633L812.2457159447054 369.58899151232157Q806.1867142919775 373.1971610358561 800.4000273202712 375.1487495831766Q794.5906474584799 377.1230310205823 787.0793008403043 377.1230310205823L787.0793008403043 377.1230310205823Q774.5074397331464 377.1230310205823 767.0641717852263 369.1805194907894Q759.6209038373061 361.2607008510816 759.6209038373061 346.55570807592215L759.6209038373061 346.55570807592215L759.6209038373061 310.9505635323648L742.4650789329532 310.9505635323648L742.4650789329532 298.0383090739301L759.6209038373061 298.0383090739301L759.6209038373061 276.63891372365947L775.6420842374025 276.63891372365947L775.6420842374025 298.0383090739301L801.1261998029952 298.0383090739301L801.1261998029952 310.9505635323648L775.6420842374025 310.9505635323648L775.6420842374025 346.71455830651803Q775.6420842374025 355.06554185784313 779.4091039915329 358.9687189524842Q783.1534308555781 362.8945889372104 789.5301329694976 362.8945889372104L789.5301329694976 362.8945889372104Q794.1140967666925 362.8945889372104 798.1988169820145 361.51032264201797Q802.2835371973365 360.12605634682546 806.6859578738502 357.51637398703633L806.6859578738502 357.51637398703633ZM848.1912538395395 362.077644894146L866.0051725563608 362.077644894146L866.0051725563608 374.9898993525808L815.0142485350902 374.9898993525808L815.0142485350902 362.077644894146L832.1700734394428 362.077644894146L832.1700734394428 275.8219696805951L815.0142485350902 275.8219696805951L815.0142485350902 262.90971522216034L848.1912538395395 262.90971522216034L848.1912538395395 362.077644894146ZM896.5498026109356 280.5420908183006Q891.3304378913574 280.5420908183006 887.7222683678231 277.7735582279156Q884.1367917343737 275.00502563753065 884.1367917343737 270.73876230152763L884.1367917343737 270.73876230152763Q884.1367917343737 266.33634162501386 887.7222683678231 263.4770374742884Q891.3304378913574 260.61773332356296 896.5498026109356 260.61773332356296L896.5498026109356 260.61773332356296Q902.1095606817908 260.61773332356296 905.6950373152399 263.4770374742884Q909.3032068387745 266.33634162501386 909.3032068387745 270.73876230152763L909.3032068387745 270.73876230152763Q909.3032068387745 275.00502563753065 905.6950373152399 277.7735582279156Q902.1095606817908 280.5420908183006 896.5498026109356 280.5420908183006L896.5498026109356 280.5420908183006ZM906.3531311277086 362.077644894146L923.826656493253 362.077644894146L923.826656493253 374.9898993525808L873.0172755926635 374.9898993525808L873.0172755926635 362.077644894146L890.3319507276121 362.077644894146L890.3319507276121 310.9505635323648L873.0172755926635 310.9505635323648L873.0172755926635 298.0383090739301L906.3531311277086 298.0383090739301L906.3531311277086 362.077644894146ZM991.3153116064075 295.90517740592855Q1000.9597898925847 295.90517740592855 1009.1292303232287 300.9656918949109Q1017.2986707538728 306.04889927397835 1022.2003350122593 315.10336241794226Q1027.1019992706458 324.1805184519913 1027.1019992706458 335.7765852854889L1027.1019992706458 335.7765852854889Q1027.1019992706458 347.7130454702634 1021.7918629907272 357.1759806357595Q1016.4817267108085 366.66160869134075 1007.3364920065042 371.97174497125945Q998.1685644121146 377.2818812511781 987.0717411604896 377.2818812511781L987.0717411604896 377.2818812511781Q972.5255986159261 377.2818812511781 960.2714379699598 366.16236510946806L960.2714379699598 366.16236510946806L960.2714379699598 397.70548232778845L978.0853566867811 397.70548232778845L978.0853566867811 410.6177367862232L927.4348260167874 410.6177367862232L927.4348260167874 397.70548232778845L944.5906509211402 397.70548232778845L944.5906509211402 310.9505635323648L927.4348260167874 310.9505635323648L927.4348260167874 298.0383090739301L960.2714379699598 298.0383090739301L960.2714379699598 312.9021520796854Q966.6481400838793 305.05041211023297 974.8175805145233 300.4891412031233Q982.9870209451676 295.90517740592855 991.3153116064075 295.90517740592855L991.3153116064075 295.90517740592855ZM983.6451147576361 363.552682749679Q991.3153116064075 363.552682749679 997.4423919293906 360.03528478648497Q1003.5694722523738 356.51788682329095 1006.9960986552273 350.16387759945667Q1010.4227250580807 343.7871754855372 1010.4227250580807 335.61773505489305L1010.4227250580807 335.61773505489305Q1010.4227250580807 324.02166822139543 1003.8190940433101 316.7372505040711Q997.1927701384543 309.47552567683186 986.9128909298938 309.47552567683186L986.9128909298938 309.47552567683186Q979.8780950035057 309.47552567683186 973.0248421977988 313.71909612274976Q966.1488965020067 317.9626665686677 960.2714379699598 325.4740131868433L960.2714379699598 325.4740131868433L960.2714379699598 354.06705469409775Q972.0263550340533 363.552682749679 983.6451147576361 363.552682749679L983.6451147576361 363.552682749679Z " fill="aquamarine" transform="matrix(0.8519115214232056,0,0,0.8519115214232057,0,14.083381874277805)"/></g></svg>